# xmcd
#
# Track frame offsets:
#	150
#	14043
#	26802
#	42025
#
# Disc length: 728 seconds
#
# Revision: 0
# Processed by: cddbd v1.5.2PL0 Copyright (c) Steve Scherf et al.
# Submitted via: audiograbber 1.83.01
#
DISCID=2c02d604
DTITLE=Janez and Irena - Musik für Dich und mich
DYEAR=2000
DGENRE=Volksmusik
TTITLE0=Musik für Dich und mich
TTITLE1=Auf Regen folgt immer wieder sonnenschein
TTITLE2=Fröhliches Akkordeon
TTITLE3=Fang noch heut' zu leben an
EXTD=
EXTT0=
EXTT1=
EXTT2=
EXTT3=
PLAYORDER=
